# xmcd
#
# Track frame offsets: 
#        150
#        18578
#        37270
#
# Disc length: 741 seconds
#
# Revision: 0
# Processed by: cddbd v1.5.2PL0 Copyright (c) Steve Scherf et al.
# Submitted via: ExactAudioCopy v1.3
#
DISCID=2202e303
DTITLE=Charlie Wilson - Sprung On Me [CDS Promo)
DYEAR=1992
DGENRE=R&B
TTITLE0=Sprung On Me (Album Version)
TTITLE1=Sprung On Me (Beatapella)
TTITLE2=Sprung On Me (Suite)
EXTD=
EXTT0=
EXTT1=
EXTT2=
PLAYORDER=
